<svg xmlns="http://www.w3.org/2000/svg" viewBox="0 0 120.52 36.97"><defs><style>.cls-1{fill:#009e9c;}.cls-2{fill:#008fc7;}.cls-3{fill:#231815;}.cls-4{fill:#595757;}</style></defs><g id="圖層_2" data-name="圖層 2"><path class="cls-1" d="M18.32,12.52h0s0,.08.21.23a4.74,4.74,0,0,1,2,4.27,4.78,4.78,0,0,1-4.95,4.6v3.69c4.57,0,8.73-3.26,8.73-7.91a8.17,8.17,0,0,0-1.59-4.9,4.44,4.44,0,0,0,.5-.71c.28-.5.33-1.1.33-3.1V0H11.87V6.92H8.12v3.81h7.57V3.89h4.22v5.9a3,3,0,0,1-1.59,2.73"/><path class="cls-2" d="M8.16,0H7.07A7.41,7.41,0,0,0,1.6,2.26C.14,3.93,0,5.41,0,7.85V25.3H11.92V18.45H15.7V14.6H8.13v6.91H3.79V7S3.52,3.9,7.3,3.82l.86,0Z"/><path class="cls-3" d="M46.86,14.37v2.94H35.2V13.27H45.45c1.49,0,1.41,1.1,1.41,1.1m-2.27,1.57V14.7H37.31v1.24Z"/><path class="cls-3" d="M33,25.29V18.16H47.48a1.84,1.84,0,0,1,.71.2,1.61,1.61,0,0,1,.92,1.37v5.56H46.68V24.8H35.44v.49H33m13.65-4.55v-1h-4.5v1h4.5m-6.72,0v-1H35.45v1H40m6.72,2.48v-1h-4.5v1h4.5m-6.72,0v-1H35.45v1Z"/><rect class="cls-3" x="35.19" y="10.98" width="11.66" height="1.52"/><path class="cls-3" d="M32.14,12.88V8.2h7.72V7h2.33V8.13h6.1s1.55.12,1.55,1.42v3.33H47.72V10.2H34.38v2.68Z"/><path class="cls-3" d="M71.69,13.86,73.16,9A1.32,1.32,0,0,0,71.87,7.4H65.7v18h2.24V22.11l1,1.5a3.57,3.57,0,0,0,1.78-.45,4.94,4.94,0,0,0,2.69-3.76,7.73,7.73,0,0,0-1.75-5.54m-.51,5.72a3.25,3.25,0,0,1-2,1.89,2.53,2.53,0,0,1-1.32.05V9.62h2.87c-.43,1.55-1,3.16-1.45,4.69.15.28.48.54.65.85C70.82,16.46,71.63,17.93,71.18,19.58Z"/><path class="cls-3" d="M64.92,15.36V13H61.7V11.28h3.15V9.05H61.7V7H59.26v2.1H55.59v2.28h3.67v1.72H55.59v2.27h3.68V17H55.64v2.32h3.52A6.29,6.29,0,0,1,57,23.58l1.33,1.78c3.28-1.83,3.43-6,3.43-6h3.2V17H61.7V15.36Z"/><polygon class="cls-3" points="110.4 9.44 103.64 9.44 103.64 10.82 119.37 10.82 119.37 9.44 112.57 9.44 112.57 8.78 120.04 8.78 120.04 7.41 112.57 7.41 112.57 6.83 110.4 6.83 110.4 7.41 103.01 7.41 103.01 8.78 110.4 8.78 110.4 9.44"/><path class="cls-3" d="M120.22,11.56a1.67,1.67,0,0,0-.84-.16H103.17v1.39h15a.75.75,0,0,1,.42.09c.14.11.12.38.12.38v1.39h1.8V12.16A.76.76,0,0,0,120.22,11.56Z"/><polygon class="cls-3" points="103.19 15.55 103.19 16.9 119.1 16.9 119.1 15.55 112.56 15.55 112.56 14.85 117.36 14.85 117.36 13.45 104.82 13.45 104.82 14.85 110.4 14.85 110.4 15.55 103.19 15.55"/><path class="cls-3" d="M102.73,19h13.42v1h-4.63v1.45h4.63v1.88c0,.67-1.35.75-2.16.7l.82,1.63a4.89,4.89,0,0,0,3.21-1c.41-.42.3-1.31.3-3.21H120V20h-1.63V19h2.2V17.6H102.73Z"/><path class="cls-3" d="M110,19.55h-6.08v5.18h1.84v-.47h3.06v.47h1.83V20.22a.65.65,0,0,0-.18-.53.78.78,0,0,0-.47-.14m-1.17,1.95v1.36h-3.07V21h2.67a.6.6,0,0,1,.32.18A.55.55,0,0,1,108.84,21.5Z"/><polygon class="cls-3" points="112.63 21.8 111.29 22.87 112.71 24.66 114.05 23.58 112.63 21.8"/><path class="cls-3" d="M87.82,15.35a24.25,24.25,0,0,1-.91,2.29,18,18,0,0,1-7.06,7.61l-1.68-1.76A15.08,15.08,0,0,0,82,20.67q4.69-4.73,4.69-12.55v-1H89.1s0,.57-.06,1c0,.63-.05,1.66,0,1.72A19.57,19.57,0,0,0,89.61,14q1.67,5.35,8,9.8l-2,1.54c-1-.82-1.82-1.54-2.51-2.17A19.78,19.78,0,0,1,87.82,15.35Z"/><path class="cls-4" d="M38.3,36v.62H32.13V36H33V32.88h.66V36h1.37V31.7H32.38v-.62h5.71v.62H35.74v1.69h2V34h-2v2Z"/><path class="cls-4" d="M46.58,36.14c0,.37-.09.57-.35.68a4.4,4.4,0,0,1-1.32.11,2.08,2.08,0,0,0-.22-.65c.46,0,.93,0,1.06,0s.18,0,.18-.16V32.39h-4.3v4.54H41V31.77h1.88a9.13,9.13,0,0,0,.4-1.18l.81.13c-.15.35-.33.73-.5,1.05h3ZM43,35.49V36h-.59V33.19h2.68v2.3Zm0-1.73v1.16h1.49V33.76Z"/><path class="cls-4" d="M55.13,32.06s0,.23,0,.32c-.15,2.79-.28,3.81-.59,4.17a.79.79,0,0,1-.63.31,8,8,0,0,1-1.1,0,1.5,1.5,0,0,0-.23-.66c.46,0,.88,0,1,0a.4.4,0,0,0,.32-.1c.23-.22.38-1.17.5-3.42H52.28A5,5,0,0,1,49.75,37a3.08,3.08,0,0,0-.5-.52,4.42,4.42,0,0,0,2.34-3.73H49.46v-.66h2.17V30.62h.67v1.44Z"/><path class="cls-4" d="M64,36.28v.49H57.78v-.49h2.78V36H58.37v-.44h2.19V35.2h-2V33.48h4.73V35.2H61.18v.31h2.23V36H61.18v.33Zm0-3.07H57.81v-.46H64Zm-.88-.73H58.67V30.82h4.42Zm-3.94,1.68h1.41v-.32H59.15Zm1.41.68v-.33H59.15v.33Zm1.88-3.67H59.29v.31h3.15Zm0,.65H59.29v.31h3.15Zm.21,2H61.18v.32h1.47Zm0,.67H61.18v.33h1.47Z"/><path class="cls-4" d="M75.67,36.3v.49h-6V36.3h1.76a4.48,4.48,0,0,0-.31-.62l.12,0h-.72v-1.3h4.45v1.3h-.71l.12,0a5.59,5.59,0,0,1-.39.62Zm-.07-2.24H69.72v-.45H75.6Zm-.29-.74H70V30.77h.55v2.1h.7v-.3h-.52v-.33h.52V32h-.46v-.32h.46v-.27h-.5v-.32h.5V30.7h.4v.36h.51v.32h-.51v.27h.47V32h-.47v.27h.54v.33h-.54v.3h.72V30.59h.56v2.28h.71v-.3h-.54v-.33h.54V32h-.47v-.32h.47v-.27h-.51v-.32h.51V30.7H74v.36h.51v.32H74v.27h.46V32H74v.27h.54v.33H74v.3h.71v-2.1h.57Zm-4.24,1.93h3.22v-.5H71.07Zm.64.4a2.81,2.81,0,0,1,.29.62l-.11,0H73.4l-.07,0a6.15,6.15,0,0,0,.35-.63Z"/><path class="cls-4" d="M84.1,31.12V32.5h-.64v-.83H78.94v.83h-.61V31.12h2.54l-.22-.45.69-.14c.1.17.23.42.31.59Zm-5.37,3.32h5v2.48h-.63v-.19H79.34v.21h-.61Zm.48-1.65h4V34.1h-4ZM83.12,32v.46H79.28V32Zm-3.78,2.91v.44h1.52v-.44Zm0,1.32h1.52v-.46H79.34Zm.46-2.58h2.75v-.43H79.8Zm3.28,1.26H81.49v.44h1.59Zm0,1.32v-.46H81.49v.46Z"/><path class="cls-4" d="M92.84,36.1v.62H86.71V36.1h2.73V34.51h-2V33.9h2V32.52H87.91a6,6,0,0,1-.68,1.07,3.77,3.77,0,0,0-.59-.39,5.83,5.83,0,0,0,1.25-2.5l.66.16c-.1.35-.23.7-.36,1h1.25V30.61h.66v1.28h2.4v.63H90.1V33.9h2.15v.61H90.1V36.1Z"/><path class="cls-4" d="M98.86,30.88l-.13.16a6.17,6.17,0,0,0,2.8,1.49,3.3,3.3,0,0,0-.46.6,5.54,5.54,0,0,1-1.37-.6V33H96.88v-.43a9.13,9.13,0,0,1-1.4.63,4,4,0,0,0-.38-.62,6.27,6.27,0,0,0,3.25-2Zm-1,5H96.32v.56h-.59v-3h2.16ZM96.32,34V35.3h1V34Zm3.16-1.63a5.85,5.85,0,0,1-1.14-.93,7.26,7.26,0,0,1-1.22.93Zm1.46,3c0,.31-.06.48-.27.58a2.76,2.76,0,0,1-1,.1,2.46,2.46,0,0,0-.19-.58h.73c.1,0,.13,0,.13-.11V34H99.16v2.9h-.63V33.46h2.41Z"/></g></svg>